# This file uses centimeters as units for non-parametric coordinates.

mtllib Leaf.mtl
g default
v -0.246642 -0.000000 1.001098
v -0.123321 -0.000000 1.001098
v 0.000000 -0.000000 1.001098
v 0.123321 -0.000000 1.001098
v 0.246642 -0.000000 1.001098
v -0.246642 -0.000000 0.801098
v -0.123321 -0.000000 0.801098
v 0.000000 -0.000000 0.801098
v 0.123321 -0.000000 0.801098
v 0.246642 -0.000000 0.801098
v -0.246642 -0.000000 0.601098
v -0.123321 -0.000000 0.601098
v 0.000000 -0.000000 0.601098
v 0.123321 -0.000000 0.601098
v 0.246642 -0.000000 0.601098
v -0.246642 0.000000 0.401098
v -0.123321 0.000000 0.401098
v 0.000000 0.000000 0.401098
v 0.123321 0.000000 0.401098
v 0.246642 0.000000 0.401098
v -0.246642 0.000000 0.201098
v -0.123321 0.000000 0.201098
v 0.000000 0.000000 0.201098
v 0.123321 0.000000 0.201098
v 0.246642 0.000000 0.201098
v -0.246642 0.000000 0.001098
v -0.123321 0.000000 0.001098
v 0.000000 0.000000 0.001098
v 0.123321 0.000000 0.001098
v 0.246642 0.000000 0.001098
vt 0.497970 1.000000
vt 0.374649 1.000000
vt 0.251328 1.000000
vt 0.128007 1.000000
vt 0.004686 1.000000
vt 0.497970 0.800000
vt 0.374650 0.800000
vt 0.251328 0.800000
vt 0.128008 0.800000
vt 0.004686 0.800000
vt 0.497970 0.600000
vt 0.374649 0.600000
vt 0.251328 0.600000
vt 0.128008 0.600000
vt 0.004686 0.600000
vt 0.497970 0.400000
vt 0.374649 0.400000
vt 0.251329 0.400000
vt 0.128007 0.400000
vt 0.004687 0.400000
vt 0.497970 0.200000
vt 0.374649 0.200000
vt 0.251329 0.200000
vt 0.128007 0.200000
vt 0.004686 0.200000
vt 0.497970 0.000000
vt 0.374649 0.000000
vt 0.251328 0.000000
vt 0.128008 0.000000
vt 0.004686 0.000000
vn 0.000000 1.000000 0.000000
vn 0.000000 1.000000 0.000000
vn 0.000000 1.000000 0.000000
vn 0.000000 1.000000 0.000000
vn 0.000000 1.000000 0.000000
vn 0.000000 1.000000 0.000000
vn 0.000000 1.000000 0.000000
vn 0.000000 1.000000 0.000000
vn 0.000000 1.000000 0.000000
vn 0.000000 1.000000 0.000000
vn 0.000000 1.000000 0.000000
vn 0.000000 1.000000 0.000000
vn 0.000000 1.000000 0.000000
vn 0.000000 1.000000 0.000000
vn 0.000000 1.000000 0.000000
vn 0.000000 1.000000 0.000000
vn 0.000000 1.000000 0.000000
vn 0.000000 1.000000 0.000000
vn 0.000000 1.000000 0.000000
vn 0.000000 1.000000 0.000000
vn 0.000000 1.000000 0.000000
vn 0.000000 1.000000 0.000000
vn 0.000000 1.000000 0.000000
vn 0.000000 1.000000 0.000000
vn 0.000000 1.000000 0.000000
vn 0.000000 1.000000 0.000000
vn 0.000000 1.000000 0.000000
vn 0.000000 1.000000 0.000000
vn 0.000000 1.000000 0.000000
vn 0.000000 1.000000 0.000000
s 1
g pPlane8
usemtl lambert6SG
f 1/1/1 2/2/2 7/7/3 6/6/4
f 2/2/2 3/3/5 8/8/6 7/7/3
f 3/3/5 4/4/7 9/9/8 8/8/6
f 4/4/7 5/5/9 10/10/10 9/9/8
f 6/6/4 7/7/3 12/12/11 11/11/12
f 7/7/3 8/8/6 13/13/13 12/12/11
f 8/8/6 9/9/8 14/14/14 13/13/13
f 9/9/8 10/10/10 15/15/15 14/14/14
f 11/11/12 12/12/11 17/17/16 16/16/17
f 12/12/11 13/13/13 18/18/18 17/17/16
f 13/13/13 14/14/14 19/19/19 18/18/18
f 14/14/14 15/15/15 20/20/20 19/19/19
f 16/16/17 17/17/16 22/22/21 21/21/22
f 17/17/16 18/18/18 23/23/23 22/22/21
f 18/18/18 19/19/19 24/24/24 23/23/23
f 19/19/19 20/20/20 25/25/25 24/24/24
f 21/21/22 22/22/21 27/27/26 26/26/27
f 22/22/21 23/23/23 28/28/28 27/27/26
f 23/23/23 24/24/24 29/29/29 28/28/28
f 24/24/24 25/25/25 30/30/30 29/29/29
